<svg width="486" height="452" viewBox="0 0 486 452" fill="none" xmlns="http://www.w3.org/2000/svg">
<g filter="url(#filter0_d_0_1)">
<mask id="path-1-inside-1_0_1" fill="white">
<path d="M453.4 293.6L481.8 293.2V309.6C478.6 309.067 474.867 308.8 470.6 308.8C466.333 308.8 461.533 309.067 456.2 309.6C456.2 330.133 446.333 350.933 426.6 372C406.867 393.067 383 410.133 355 423.2C327.267 436.533 301.4 443.2 277.4 443.2C264.867 443.2 254.6 440 246.6 433.6C238.867 427.2 235 418.8 235 408.4C235 392.933 245.267 376.8 265.8 360C286.333 343.2 310.333 329.333 337.8 318.4C365.267 307.467 390.067 301.067 412.2 299.2C409.533 295.2 405.4 291.733 399.8 288.8C394.2 285.867 382.733 281.333 365.4 275.2C348.067 268.8 335.8 261.867 328.6 254.4C321.4 246.667 317.8 235.867 317.8 222C317.8 208.133 325.267 192.267 340.2 174.4C355.133 156.533 372.733 141.6 393 129.6C413.533 117.333 431.533 111.2 447 111.2C453.933 111.2 459.667 113.733 464.2 118.8C468.733 123.6 471 129.6 471 136.8C471 148.533 463.933 163.333 449.8 181.2C435.667 198.8 419.933 212.267 402.6 221.6L393 208C403.4 202.667 412.467 194.4 420.2 183.2C428.2 171.733 432.2 161.867 432.2 153.6C432.2 145.333 427.8 141.2 419 141.2C406.467 141.2 392.067 149.067 375.8 164.8C359.8 180.267 351.8 194.8 351.8 208.4C351.8 217.733 354.2 225.067 359 230.4C363.8 235.733 375.933 242.4 395.4 250.4C414.867 258.133 428.733 265.067 437 271.2C445.267 277.067 450.733 284.533 453.4 293.6ZM275 398C275 410.8 285.4 417.2 306.2 417.2C317.667 417.2 332.467 412.933 350.6 404.4C369 396.133 385.133 384.4 399 369.2C413.133 354.267 420.2 338.933 420.2 323.2C420.2 321.333 419.8 318.533 419 314.8C382.467 318.267 349.267 328.533 319.4 345.6C289.8 362.667 275 380.133 275 398Z"/>
</mask>
<path d="M453.4 293.6L481.8 293.2V309.6C478.6 309.067 474.867 308.8 470.6 308.8C466.333 308.8 461.533 309.067 456.2 309.6C456.2 330.133 446.333 350.933 426.6 372C406.867 393.067 383 410.133 355 423.2C327.267 436.533 301.4 443.2 277.4 443.2C264.867 443.2 254.6 440 246.6 433.6C238.867 427.2 235 418.8 235 408.4C235 392.933 245.267 376.8 265.8 360C286.333 343.2 310.333 329.333 337.8 318.4C365.267 307.467 390.067 301.067 412.2 299.2C409.533 295.2 405.4 291.733 399.8 288.8C394.2 285.867 382.733 281.333 365.4 275.2C348.067 268.8 335.8 261.867 328.6 254.4C321.4 246.667 317.8 235.867 317.8 222C317.8 208.133 325.267 192.267 340.2 174.4C355.133 156.533 372.733 141.6 393 129.6C413.533 117.333 431.533 111.2 447 111.2C453.933 111.2 459.667 113.733 464.2 118.8C468.733 123.6 471 129.6 471 136.8C471 148.533 463.933 163.333 449.8 181.2C435.667 198.8 419.933 212.267 402.6 221.6L393 208C403.4 202.667 412.467 194.4 420.2 183.2C428.2 171.733 432.2 161.867 432.2 153.6C432.2 145.333 427.8 141.2 419 141.2C406.467 141.2 392.067 149.067 375.8 164.8C359.8 180.267 351.8 194.8 351.8 208.4C351.8 217.733 354.2 225.067 359 230.4C363.8 235.733 375.933 242.4 395.4 250.4C414.867 258.133 428.733 265.067 437 271.2C445.267 277.067 450.733 284.533 453.4 293.6ZM275 398C275 410.8 285.4 417.2 306.2 417.2C317.667 417.2 332.467 412.933 350.6 404.4C369 396.133 385.133 384.4 399 369.2C413.133 354.267 420.2 338.933 420.2 323.2C420.2 321.333 419.8 318.533 419 314.8C382.467 318.267 349.267 328.533 319.4 345.6C289.8 362.667 275 380.133 275 398Z" fill="white"/>
<path d="M453.4 293.6L448.603 295.011L449.674 298.653L453.47 298.599L453.4 293.6ZM481.8 293.2H486.8V288.129L481.73 288.201L481.8 293.2ZM481.8 309.6L480.978 314.532L486.8 315.502V309.6H481.8ZM456.2 309.6L455.702 304.625L451.2 305.075V309.6H456.2ZM426.6 372L422.951 368.582L426.6 372ZM355 423.2L352.886 418.669L352.859 418.681L352.834 418.694L355 423.2ZM246.6 433.6L243.412 437.452L243.444 437.478L243.477 437.504L246.6 433.6ZM265.8 360L268.966 363.87L265.8 360ZM337.8 318.4L339.649 323.045L337.8 318.4ZM412.2 299.2L412.62 304.182L421.056 303.471L416.36 296.426L412.2 299.2ZM399.8 288.8L397.48 293.229H397.48L399.8 288.8ZM365.4 275.2L363.668 279.89L363.7 279.902L363.732 279.914L365.4 275.2ZM328.6 254.4L324.941 257.807L324.97 257.839L325.001 257.871L328.6 254.4ZM340.2 174.4L336.364 171.193H336.364L340.2 174.4ZM393 129.6L395.547 133.902L395.556 133.897L395.564 133.892L393 129.6ZM464.2 118.8L460.474 122.134L460.519 122.184L460.565 122.233L464.2 118.8ZM449.8 181.2L453.699 184.331L453.71 184.316L453.721 184.302L449.8 181.2ZM402.6 221.6L398.515 224.483L401.07 228.103L404.971 226.002L402.6 221.6ZM393 208L390.718 203.551L385.594 206.179L388.915 210.883L393 208ZM420.2 183.2L416.099 180.339L416.092 180.349L416.086 180.359L420.2 183.2ZM375.8 164.8L379.275 168.395L379.276 168.394L375.8 164.8ZM395.4 250.4L393.499 255.025L393.527 255.036L393.554 255.047L395.4 250.4ZM437 271.2L434.021 275.215L434.063 275.247L434.106 275.278L437 271.2ZM350.6 404.4L348.551 399.839L348.511 399.857L348.471 399.876L350.6 404.4ZM399 369.2L395.369 365.763L395.337 365.796L395.306 365.83L399 369.2ZM419 314.8L423.889 313.752L422.957 309.402L418.528 309.822L419 314.8ZM319.4 345.6L316.919 341.259L316.911 341.264L316.903 341.268L319.4 345.6ZM453.4 293.6L453.47 298.599L481.87 298.199L481.8 293.2L481.73 288.201L453.33 288.6L453.4 293.6ZM481.8 293.2H476.8V309.6H481.8H486.8V293.2H481.8ZM481.8 309.6L482.622 304.668C479.081 304.078 475.062 303.8 470.6 303.8V308.8V313.8C474.672 313.8 478.119 314.055 480.978 314.532L481.8 309.6ZM470.6 308.8V303.8C466.132 303.8 461.161 304.079 455.702 304.625L456.2 309.6L456.698 314.575C461.905 314.054 466.535 313.8 470.6 313.8V308.8ZM456.2 309.6H451.2C451.2 328.427 442.17 348.064 422.951 368.582L426.6 372L430.249 375.418C450.497 353.802 461.2 331.84 461.2 309.6H456.2ZM426.6 372L422.951 368.582C403.683 389.151 380.349 405.853 352.886 418.669L355 423.2L357.114 427.731C385.651 414.414 410.05 396.982 430.249 375.418L426.6 372ZM355 423.2L352.834 418.694C325.592 431.791 300.469 438.2 277.4 438.2V443.2V448.2C302.331 448.2 328.941 441.276 357.166 427.706L355 423.2ZM277.4 443.2V438.2C265.741 438.2 256.652 435.239 249.723 429.696L246.6 433.6L243.477 437.504C252.548 444.761 263.993 448.2 277.4 448.2V443.2ZM246.6 433.6L249.788 429.748C243.249 424.337 240 417.372 240 408.4H235H230C230 420.228 234.484 430.063 243.412 437.452L246.6 433.6ZM235 408.4H240C240 395.227 248.793 380.375 268.966 363.87L265.8 360L262.634 356.13C241.74 373.225 230 390.64 230 408.4H235ZM265.8 360L268.966 363.87C289.06 347.429 312.605 333.811 339.649 323.045L337.8 318.4L335.951 313.755C308.062 324.856 283.606 338.971 262.634 356.13L265.8 360ZM337.8 318.4L339.649 323.045C366.8 312.238 391.109 305.997 412.62 304.182L412.2 299.2L411.78 294.218C389.025 296.137 363.733 302.695 335.951 313.755L337.8 318.4ZM412.2 299.2L416.36 296.426C413.105 291.544 408.236 287.575 402.12 284.371L399.8 288.8L397.48 293.229C402.564 295.892 405.962 298.856 408.04 301.973L412.2 299.2ZM399.8 288.8L402.12 284.371C396.154 281.246 384.352 276.602 367.068 270.486L365.4 275.2L363.732 279.914C381.114 286.064 392.246 290.488 397.48 293.229L399.8 288.8ZM365.4 275.2L367.132 270.51C350.036 264.197 338.615 257.582 332.199 250.929L328.6 254.4L325.001 257.871C332.985 266.151 346.098 273.403 363.668 279.89L365.4 275.2ZM328.6 254.4L332.259 250.993C326.163 244.444 322.8 235.008 322.8 222H317.8H312.8C312.8 236.725 316.637 248.889 324.941 257.807L328.6 254.4ZM317.8 222H322.8C322.8 209.873 329.385 195.135 344.036 177.607L340.2 174.4L336.364 171.193C321.148 189.398 312.8 206.394 312.8 222H317.8ZM340.2 174.4L344.036 177.607C358.601 160.181 375.764 145.616 395.547 133.902L393 129.6L390.453 125.298C369.703 137.584 351.665 152.886 336.364 171.193L340.2 174.4ZM393 129.6L395.564 133.892C415.711 121.857 432.801 116.2 447 116.2V111.2V106.2C430.265 106.2 411.356 112.81 390.436 125.308L393 129.6ZM447 111.2V116.2C452.543 116.2 456.91 118.151 460.474 122.134L464.2 118.8L467.926 115.466C462.423 109.315 455.324 106.2 447 106.2V111.2ZM464.2 118.8L460.565 122.233C464.139 126.017 466 130.75 466 136.8H471H476C476 128.449 473.328 121.183 467.835 115.367L464.2 118.8ZM471 136.8H466C466 146.751 459.875 160.404 445.879 178.098L449.8 181.2L453.721 184.302C467.992 166.262 476 150.315 476 136.8H471ZM449.8 181.2L445.901 178.069C432.126 195.223 416.893 208.225 400.23 217.198L402.6 221.6L404.971 226.002C422.973 216.309 439.207 202.377 453.699 184.331L449.8 181.2ZM402.6 221.6L406.685 218.717L397.085 205.117L393 208L388.915 210.883L398.515 224.483L402.6 221.6ZM393 208L395.282 212.449C406.528 206.682 416.19 197.808 424.314 186.041L420.2 183.2L416.086 180.359C408.744 190.992 400.272 198.652 390.718 203.551L393 208ZM420.2 183.2L424.301 186.061C432.523 174.276 437.2 163.38 437.2 153.6H432.2H427.2C427.2 160.353 423.877 169.191 416.099 180.339L420.2 183.2ZM432.2 153.6H437.2C437.2 148.613 435.858 143.976 432.323 140.656C428.848 137.391 424.096 136.2 419 136.2V141.2V146.2C422.704 146.2 424.552 147.076 425.477 147.944C426.342 148.757 427.2 150.32 427.2 153.6H432.2ZM419 141.2V136.2C404.458 136.2 388.841 145.23 372.324 161.206L375.8 164.8L379.276 168.394C395.292 152.903 408.475 146.2 419 146.2V141.2ZM375.8 164.8L372.325 161.205C355.944 177.04 346.8 192.796 346.8 208.4H351.8H356.8C356.8 196.804 363.656 183.494 379.275 168.395L375.8 164.8ZM351.8 208.4H346.8C346.8 218.587 349.434 227.245 355.284 233.745L359 230.4L362.716 227.055C358.966 222.889 356.8 216.879 356.8 208.4H351.8ZM359 230.4L355.284 233.745C358.263 237.055 363.103 240.381 369.292 243.782C375.584 247.239 383.672 250.986 393.499 255.025L395.4 250.4L397.301 245.775C387.662 241.814 379.949 238.227 374.108 235.018C368.164 231.752 364.537 229.078 362.716 227.055L359 230.4ZM395.4 250.4L393.554 255.047C412.943 262.749 426.302 269.489 434.021 275.215L437 271.2L439.979 267.185C431.164 260.644 416.79 253.517 397.246 245.753L395.4 250.4ZM437 271.2L434.106 275.278C441.528 280.545 446.277 287.102 448.603 295.011L453.4 293.6L458.197 292.189C455.19 281.964 449.005 273.589 439.894 267.122L437 271.2ZM275 398H270C270 406.035 273.416 412.496 280.18 416.658C286.545 420.575 295.45 422.2 306.2 422.2V417.2V412.2C296.15 412.2 289.455 410.625 285.42 408.142C281.784 405.904 280 402.765 280 398H275ZM306.2 417.2V422.2C318.761 422.2 334.356 417.57 352.729 408.924L350.6 404.4L348.471 399.876C330.577 408.296 316.572 412.2 306.2 412.2V417.2ZM350.6 404.4L352.649 408.961C371.686 400.408 388.376 388.265 402.694 372.57L399 369.2L395.306 365.83C381.891 380.535 366.314 391.859 348.551 399.839L350.6 404.4ZM399 369.2L402.631 372.637C417.365 357.069 425.2 340.566 425.2 323.2H420.2H415.2C415.2 337.301 408.901 351.464 395.369 365.763L399 369.2ZM420.2 323.2H425.2C425.2 320.779 424.703 317.551 423.889 313.752L419 314.8L414.111 315.848C414.897 319.516 415.2 321.887 415.2 323.2H420.2ZM419 314.8L418.528 309.822C381.335 313.352 347.443 323.817 316.919 341.259L319.4 345.6L321.881 349.941C351.09 333.25 383.598 323.182 419.472 319.778L419 314.8ZM319.4 345.6L316.903 341.268C287.127 358.437 270 377.188 270 398H275H280C280 383.079 292.473 366.897 321.897 349.932L319.4 345.6Z" fill="black" mask="url(#path-1-inside-1_0_1)"/>
</g>
<g filter="url(#filter1_d_0_1)">
<mask id="path-3-outside-2_0_1" maskUnits="userSpaceOnUse" x="4" y="0" width="461" height="395" fill="black">
<rect fill="white" x="4" width="461" height="395"/>
<path d="M426 13L457.5 28.5C436.167 63.1667 410.833 94 381.5 121C352.5 148 313.833 174.833 265.5 201.5C274.833 249.833 286.333 288.5 300 317.5C313.667 346.833 331.5 363.167 353.5 366.5V389.5C350.833 389.833 347.333 390 343 390C320.667 390 299 374.5 278 343.5C257.333 312.5 238.667 266.667 222 206C207.667 251 185.833 286.667 156.5 313C127.167 339 96.6667 352 65 352C48.6667 352 35.1667 347.5 24.5 338.5C14.1667 329.833 9 317.833 9 302.5C9 286.833 16 270.667 30 254C44 237.333 63.1667 223.333 87.5 212L99 230C69 251.333 54 271.333 54 290C54 299 57 306.333 63 312C69 317.333 76.8333 320 86.5 320C109.167 320 128.667 310.5 145 291.5C161.667 272.167 176.5 238.5 189.5 190.5C205.833 130.167 222.5 90.6667 239.5 72C247.167 63.3333 258.333 53.8333 273 43.5C250 44.1667 226.5 48.1667 202.5 55.5C178.5 62.5 157.5 73.1667 139.5 87.5C121.5 101.5 112.5 117.167 112.5 134.5C112.5 156.833 122.667 174.667 143 188L133 203.5C114.333 194.5 99.6667 182.833 89 168.5C78.3333 154.167 73 139.333 73 124C73 103 84.5 83.1667 107.5 64.5C130.5 45.8333 158.667 31.3333 192 21C225.667 10.6667 258.667 5.5 291 5.5C311 5.5 321 9.83332 321 18.5C321 24.1667 315.167 31.3333 303.5 40C282.167 56 265.667 76.8333 254 102.5C242.667 128.167 233.333 158.167 226 192.5C264 178.5 300.333 155.333 335 123C370 90.3333 400.333 53.6667 426 13Z"/>
</mask>
<path d="M426 13L457.5 28.5C436.167 63.1667 410.833 94 381.5 121C352.5 148 313.833 174.833 265.5 201.5C274.833 249.833 286.333 288.5 300 317.5C313.667 346.833 331.5 363.167 353.5 366.5V389.5C350.833 389.833 347.333 390 343 390C320.667 390 299 374.5 278 343.5C257.333 312.5 238.667 266.667 222 206C207.667 251 185.833 286.667 156.5 313C127.167 339 96.6667 352 65 352C48.6667 352 35.1667 347.5 24.5 338.5C14.1667 329.833 9 317.833 9 302.5C9 286.833 16 270.667 30 254C44 237.333 63.1667 223.333 87.5 212L99 230C69 251.333 54 271.333 54 290C54 299 57 306.333 63 312C69 317.333 76.8333 320 86.5 320C109.167 320 128.667 310.5 145 291.5C161.667 272.167 176.5 238.5 189.5 190.5C205.833 130.167 222.5 90.6667 239.5 72C247.167 63.3333 258.333 53.8333 273 43.5C250 44.1667 226.5 48.1667 202.5 55.5C178.5 62.5 157.5 73.1667 139.5 87.5C121.5 101.5 112.5 117.167 112.5 134.5C112.5 156.833 122.667 174.667 143 188L133 203.5C114.333 194.5 99.6667 182.833 89 168.5C78.3333 154.167 73 139.333 73 124C73 103 84.5 83.1667 107.5 64.5C130.5 45.8333 158.667 31.3333 192 21C225.667 10.6667 258.667 5.5 291 5.5C311 5.5 321 9.83332 321 18.5C321 24.1667 315.167 31.3333 303.5 40C282.167 56 265.667 76.8333 254 102.5C242.667 128.167 233.333 158.167 226 192.5C264 178.5 300.333 155.333 335 123C370 90.3333 400.333 53.6667 426 13Z" fill="white"/>
<path d="M426 13L428.208 8.5137L424.172 6.52804L421.772 10.3313L426 13ZM457.5 28.5L461.758 31.1205L464.639 26.4401L459.708 24.0137L457.5 28.5ZM381.5 121L378.114 117.321L378.103 117.331L378.093 117.341L381.5 121ZM265.5 201.5L263.085 197.122L259.901 198.878L260.591 202.448L265.5 201.5ZM300 317.5L304.532 315.388L304.528 315.378L304.523 315.368L300 317.5ZM353.5 366.5H358.5V362.201L354.249 361.556L353.5 366.5ZM353.5 389.5L354.12 394.461L358.5 393.914V389.5H353.5ZM278 343.5L273.84 346.273L273.85 346.289L273.86 346.304L278 343.5ZM222 206L226.821 204.675L222.354 188.414L217.236 204.483L222 206ZM156.5 313L159.817 316.742L159.828 316.731L159.84 316.721L156.5 313ZM24.5 338.5L27.7244 334.679L27.7187 334.674L27.7131 334.669L24.5 338.5ZM30 254L33.8285 257.216L30 254ZM87.5 212L91.7135 209.308L89.3569 205.619L85.389 207.467L87.5 212ZM99 230L101.898 234.075L105.775 231.317L103.213 227.308L99 230ZM63 312L59.5669 315.635L59.6218 315.687L59.6782 315.737L63 312ZM145 291.5L141.213 288.235L141.208 288.241L145 291.5ZM189.5 190.5L194.326 191.807L194.326 191.807L189.5 190.5ZM239.5 72L243.197 75.3666L243.221 75.3399L243.245 75.3129L239.5 72ZM273 43.5L275.88 47.5874L289.458 38.0208L272.855 38.5021L273 43.5ZM202.5 55.5L203.9 60.3L203.931 60.291L203.961 60.2817L202.5 55.5ZM139.5 87.5L142.57 91.4467L142.592 91.4292L142.615 91.4114L139.5 87.5ZM143 188L147.201 190.711L149.892 186.54L145.742 183.819L143 188ZM133 203.5L130.829 208.004L134.807 209.922L137.201 206.211L133 203.5ZM89 168.5L84.9888 171.485L89 168.5ZM107.5 64.5L110.651 68.3823V68.3823L107.5 64.5ZM192 21L190.533 16.22L190.52 16.2242L192 21ZM303.5 40L300.518 35.9863L300.509 35.9931L300.5 36L303.5 40ZM254 102.5L249.448 100.431L249.437 100.456L249.426 100.48L254 102.5ZM226 192.5L221.11 191.456L219.215 200.328L227.729 197.192L226 192.5ZM335 123L338.41 126.656L338.412 126.655L335 123ZM426 13L423.792 17.4863L455.292 32.9863L457.5 28.5L459.708 24.0137L428.208 8.5137L426 13ZM457.5 28.5L453.242 25.8795C432.144 60.1633 407.102 90.6387 378.114 117.321L381.5 121L384.886 124.679C414.565 97.3612 440.189 66.17 461.758 31.1205L457.5 28.5ZM381.5 121L378.093 117.341C349.484 143.976 311.188 170.582 263.085 197.122L265.5 201.5L267.915 205.878C316.478 179.084 355.516 152.024 384.907 124.659L381.5 121ZM265.5 201.5L260.591 202.448C269.966 250.997 281.565 290.111 295.477 319.632L300 317.5L304.523 315.368C291.102 286.889 279.701 248.669 270.409 200.552L265.5 201.5ZM300 317.5L295.468 319.612C309.497 349.723 328.425 367.758 352.751 371.444L353.5 366.5L354.249 361.556C334.575 358.576 317.836 343.944 304.532 315.388L300 317.5ZM353.5 366.5H348.5V389.5H353.5H358.5V366.5H353.5ZM353.5 389.5L352.88 384.539C350.504 384.836 347.235 385 343 385V390V395C347.432 395 351.162 394.831 354.12 394.461L353.5 389.5ZM343 390V385C323.202 385 302.843 371.257 282.14 340.696L278 343.5L273.86 346.304C295.157 377.743 318.131 395 343 395V390ZM278 343.5L282.16 340.727C261.925 310.373 243.43 265.13 226.821 204.675L222 206L217.179 207.325C233.904 268.203 252.742 314.627 273.84 346.273L278 343.5ZM222 206L217.236 204.483C203.119 248.803 181.711 283.648 153.16 309.279L156.5 313L159.84 316.721C189.956 289.685 212.214 253.197 226.764 207.517L222 206ZM156.5 313L153.183 309.258C124.538 334.648 95.1725 347 65 347V352V357C98.1608 357 129.795 343.352 159.817 316.742L156.5 313ZM65 352V347C49.6354 347 37.3396 342.791 27.7244 334.679L24.5 338.5L21.2756 342.321C32.9938 352.209 47.698 357 65 357V352ZM24.5 338.5L27.7131 334.669C18.6754 327.089 14 316.582 14 302.5H9H4C4 319.085 9.6579 332.578 21.2869 342.331L24.5 338.5ZM9 302.5H14C14 288.396 20.2928 273.33 33.8285 257.216L30 254L26.1715 250.784C11.7072 268.003 4 285.271 4 302.5H9ZM30 254L33.8285 257.216C47.2627 241.223 65.7887 227.628 89.611 216.533L87.5 212L85.389 207.467C60.5446 219.039 40.7373 233.444 26.1715 250.784L30 254ZM87.5 212L83.2865 214.692L94.7865 232.692L99 230L103.213 227.308L91.7135 209.308L87.5 212ZM99 230L96.1024 225.925C65.9659 247.356 49 268.669 49 290H54H59C59 273.997 72.0341 255.311 101.898 234.075L99 230ZM54 290H49C49 300.237 52.4704 308.933 59.5669 315.635L63 312L66.4331 308.365C61.5296 303.734 59 297.763 59 290H54ZM63 312L59.6782 315.737C66.7724 322.043 75.8714 325 86.5 325V320V315C77.7953 315 71.2276 312.624 66.3218 308.263L63 312ZM86.5 320V325C110.788 325 131.621 314.733 148.792 294.759L145 291.5L141.208 288.241C125.712 306.267 107.545 315 86.5 315V320ZM145 291.5L148.787 294.765C166.215 274.548 181.282 239.971 194.326 191.807L189.5 190.5L184.674 189.193C171.718 237.029 157.118 269.785 141.213 288.235L145 291.5ZM189.5 190.5L194.326 191.807C202.458 161.768 210.64 137.041 218.857 117.569C227.101 98.0295 235.254 84.0878 243.197 75.3666L239.5 72L235.803 68.6333C226.746 78.5788 218.066 93.7205 209.643 113.681C201.193 133.709 192.875 158.898 184.674 189.193L189.5 190.5ZM239.5 72L243.245 75.3129C250.554 67.0502 261.377 57.8051 275.88 47.5874L273 43.5L270.12 39.4126C255.289 49.8616 243.779 59.6164 235.755 68.6871L239.5 72ZM273 43.5L272.855 38.5021C249.37 39.1828 225.428 43.2661 201.039 50.7182L202.5 55.5L203.961 60.2817C227.572 53.0672 250.63 49.1505 273.145 48.4979L273 43.5ZM202.5 55.5L201.1 50.7C176.53 57.8661 154.936 68.8166 136.385 83.5886L139.5 87.5L142.615 91.4114C160.064 77.5167 180.47 67.1339 203.9 60.3L202.5 55.5ZM139.5 87.5L136.43 83.5532C117.629 98.1768 107.5 115.164 107.5 134.5H112.5H117.5C117.5 119.17 125.372 104.823 142.57 91.4467L139.5 87.5ZM112.5 134.5H107.5C107.5 158.689 118.664 178.021 140.258 192.181L143 188L145.742 183.819C126.669 171.312 117.5 154.978 117.5 134.5H112.5ZM143 188L138.799 185.289L128.799 200.789L133 203.5L137.201 206.211L147.201 190.711L143 188ZM133 203.5L135.172 198.996C117.115 190.29 103.124 179.105 93.0112 165.515L89 168.5L84.9888 171.485C96.209 186.562 111.552 198.71 130.829 208.004L133 203.5ZM89 168.5L93.0112 165.515C82.8766 151.897 78 138.087 78 124H73H68C68 140.579 73.7901 156.437 84.9888 171.485L89 168.5ZM73 124H78C78 105.053 88.3176 86.5078 110.651 68.3823L107.5 64.5L104.349 60.6177C80.6824 79.8255 68 100.947 68 124H73ZM107.5 64.5L110.651 68.3823C133.076 50.1819 160.649 35.9534 193.48 25.7758L192 21L190.52 16.2242C156.684 26.7132 127.924 41.4847 104.349 60.6177L107.5 64.5ZM192 21L193.467 25.7799C226.701 15.5795 259.206 10.5 291 10.5V5.49999V0.499992C258.127 0.499992 224.633 5.75377 190.533 16.2201L192 21ZM291 5.49999V10.5C300.792 10.5 307.464 11.5838 311.512 13.3378C313.481 14.1909 314.572 15.0936 315.162 15.861C315.7 16.5603 316 17.3689 316 18.5H321H326C326 15.2977 325.05 12.3147 323.088 9.76393C321.178 7.28143 318.519 5.47576 315.488 4.16221C309.536 1.58288 301.208 0.499992 291 0.499992V5.49999ZM321 18.5H316C316 19.6544 315.363 21.7553 312.747 24.9686C310.197 28.1013 306.185 31.7766 300.518 35.9863L303.5 40L306.482 44.0137C312.481 39.5567 317.219 35.3154 320.503 31.2813C323.721 27.328 326 23.0122 326 18.5H321ZM303.5 40L300.5 36C278.457 52.5323 261.441 74.0459 249.448 100.431L254 102.5L258.552 104.569C269.892 79.6208 285.876 59.4677 306.5 44L303.5 40ZM254 102.5L249.426 100.48C237.925 126.527 228.498 156.867 221.11 191.456L226 192.5L230.89 193.544C238.168 159.467 247.408 129.806 258.574 104.52L254 102.5ZM226 192.5L227.729 197.192C266.449 182.926 303.339 159.367 338.41 126.656L335 123L331.59 119.344C297.327 151.3 261.551 174.074 224.271 187.808L226 192.5ZM335 123L338.412 126.655C373.726 93.6948 404.334 56.6962 430.228 15.6687L426 13L421.772 10.3313C396.333 50.6371 366.274 86.9719 331.588 119.345L335 123Z" fill="black" mask="url(#path-3-outside-2_0_1)"/>
</g>
<defs>
<filter id="filter0_d_0_1" x="231" y="111.2" width="254.8" height="340" filterUnits="userSpaceOnUse" color-interpolation-filters="sRGB">
<feFlood flood-opacity="0" result="BackgroundImageFix"/>
<feColorMatrix in="SourceAlpha" type="matrix" values="0 0 0 0 0 0 0 0 0 0 0 0 0 0 0 0 0 0 127 0" result="hardAlpha"/>
<feOffset dy="4"/>
<feGaussianBlur stdDeviation="2"/>
<feComposite in2="hardAlpha" operator="out"/>
<feColorMatrix type="matrix" values="0 0 0 0 0 0 0 0 0 0 0 0 0 0 0 0 0 0 0.25 0"/>
<feBlend mode="normal" in2="BackgroundImageFix" result="effect1_dropShadow_0_1"/>
<feBlend mode="normal" in="SourceGraphic" in2="effect1_dropShadow_0_1" result="shape"/>
</filter>
<filter id="filter1_d_0_1" x="0" y="0.5" width="468.639" height="402.5" filterUnits="userSpaceOnUse" color-interpolation-filters="sRGB">
<feFlood flood-opacity="0" result="BackgroundImageFix"/>
<feColorMatrix in="SourceAlpha" type="matrix" values="0 0 0 0 0 0 0 0 0 0 0 0 0 0 0 0 0 0 127 0" result="hardAlpha"/>
<feOffset dy="4"/>
<feGaussianBlur stdDeviation="2"/>
<feComposite in2="hardAlpha" operator="out"/>
<feColorMatrix type="matrix" values="0 0 0 0 0 0 0 0 0 0 0 0 0 0 0 0 0 0 0.25 0"/>
<feBlend mode="normal" in2="BackgroundImageFix" result="effect1_dropShadow_0_1"/>
<feBlend mode="normal" in="SourceGraphic" in2="effect1_dropShadow_0_1" result="shape"/>
</filter>
</defs>
</svg>
